<svg width="373" height="257" viewBox="0 0 373 257" fill="none" xmlns="http://www.w3.org/2000/svg">
<path fill-rule="evenodd" clip-rule="evenodd" d="M371.996 134.633L102.499 0.5L0 198L320.496 256.747C328.82 255.951 376.123 140.902 371.996 134.633ZM363.767 138.78L245.15 125.246L205.408 233.367L320.79 248.474L363.767 138.78Z" fill="url(#paint0_linear_237_1376)"/>
<path fill-rule="evenodd" clip-rule="evenodd" d="M371.996 134.633L102.499 0.5L0 198L320.496 256.747C328.82 255.951 376.123 140.902 371.996 134.633ZM363.767 138.78L245.15 125.246L205.408 233.367L320.79 248.474L363.767 138.78Z" fill="url(#paint1_linear_237_1376)"/>
<path fill-rule="evenodd" clip-rule="evenodd" d="M371.996 134.633L102.499 0.5L0 198L320.496 256.747C328.82 255.951 376.123 140.902 371.996 134.633ZM363.767 138.78L245.15 125.246L205.408 233.367L320.79 248.474L363.767 138.78Z" fill="url(#paint2_linear_237_1376)"/>
<defs>
<linearGradient id="paint0_linear_237_1376" x1="335.904" y1="178.197" x2="130.425" y2="106.166" gradientUnits="userSpaceOnUse">
<stop offset="0.11" stop-color="#F5F5F5"/>
<stop offset="1" stop-color="#B5EE85" stop-opacity="0"/>
</linearGradient>
<linearGradient id="paint1_linear_237_1376" x1="335.904" y1="178.197" x2="130.425" y2="106.166" gradientUnits="userSpaceOnUse">
<stop offset="0.11" stop-color="#F5F5F5"/>
<stop offset="1" stop-color="#B5EE85" stop-opacity="0"/>
</linearGradient>
<linearGradient id="paint2_linear_237_1376" x1="335.904" y1="178.197" x2="130.425" y2="106.166" gradientUnits="userSpaceOnUse">
<stop offset="0.11" stop-color="#F5F5F5"/>
<stop offset="1" stop-color="#B5EE85" stop-opacity="0"/>
</linearGradient>
</defs>
</svg>
