<svg width="245" height="214" viewBox="0 0 245 214" fill="none" xmlns="http://www.w3.org/2000/svg">
<rect x="28" y="13" width="188" height="188" rx="13" fill="url(#paint0_linear_188_239)"/>
<g opacity="0.5">
<path fill-rule="evenodd" clip-rule="evenodd" d="M104 38C106.761 38 109 40.2386 109 43V89C109 91.7614 106.761 94 104 94H58C55.2386 94 53 91.7614 53 89V43C53 40.2386 55.2386 38 58 38H104ZM69.2 49.2C66.4386 49.2 64.2 51.4386 64.2 54.2V77.8C64.2 80.5614 66.4386 82.8 69.2 82.8H92.8C95.5614 82.8 97.8 80.5614 97.8 77.8V54.2C97.8 51.4386 95.5614 49.2 92.8 49.2H69.2ZM135.601 43.3224C135.601 40.561 137.839 38.3224 140.601 38.3224H186.601C189.362 38.3224 191.601 40.561 191.601 43.3224V89.3224C191.601 92.0838 189.362 94.3224 186.601 94.3224H140.601C137.839 94.3224 135.601 92.0838 135.601 89.3224V43.3224ZM151.801 49.5224C149.039 49.5224 146.801 51.761 146.801 54.5224V78.1224C146.801 80.8838 149.039 83.1224 151.801 83.1224H175.401C178.162 83.1224 180.401 80.8838 180.401 78.1224V54.5224C180.401 51.761 178.162 49.5224 175.401 49.5224H151.801ZM158.631 66.3517C158.631 63.5903 160.87 61.3517 163.631 61.3517C166.392 61.3517 168.631 63.5903 168.631 66.3517C168.631 69.1131 166.392 71.3517 163.631 71.3517C160.87 71.3517 158.631 69.1131 158.631 66.3517ZM104.601 120.322C107.362 120.322 109.601 122.561 109.601 125.322V171.322C109.601 174.084 107.362 176.322 104.601 176.322H58.6006C55.8392 176.322 53.6006 174.084 53.6006 171.322V125.322C53.6006 122.561 55.8392 120.322 58.6006 120.322H104.601ZM69.8006 131.522C67.0392 131.522 64.8006 133.761 64.8006 136.522V160.122C64.8006 162.884 67.0392 165.122 69.8006 165.122H93.4006C96.1621 165.122 98.4006 162.884 98.4006 160.122V136.522C98.4006 133.761 96.1621 131.522 93.4006 131.522H69.8006ZM87.0705 140.791H76.0705C74.966 140.791 74.0705 141.687 74.0705 142.791V153.791C74.0705 154.896 74.966 155.791 76.0705 155.791H87.0705C88.1751 155.791 89.0705 154.896 89.0705 153.791V142.791C89.0705 141.687 88.1751 140.791 87.0705 140.791ZM127.601 120.322V138.989H136.934V148.322H127.601V157.656H146.267V138.989H155.601V157.656H164.934V148.322H183.601V138.989H155.601V120.322H127.601ZM183.601 157.656H174.267V166.989H155.601V176.322H183.601V157.656ZM146.267 166.989V176.322H127.601V166.989H146.267ZM163.413 131.322H186.413V120.322H163.413V131.322Z" fill="#4D43FE"/>
</g>
<path d="M185.986 210.303H206.986C216.375 210.303 223.986 202.692 223.986 193.303V172.303" stroke="#C7FF24" stroke-width="4" stroke-linecap="round"/>
<path d="M59.9414 210.303H38.9414C29.5526 210.303 21.9414 202.692 21.9414 193.303V172.303" stroke="#C7FF24" stroke-width="4" stroke-linecap="round"/>
<path d="M185.986 8.30274H206.986C216.375 8.30274 223.986 15.9139 223.986 25.3027V46.3027" stroke="#C7FF24" stroke-width="4" stroke-linecap="round"/>
<path d="M59.9434 8.30274H38.9434C29.5545 8.30274 21.9434 15.9139 21.9434 25.3027V46.3027" stroke="#C7FF24" stroke-width="4" stroke-linecap="round"/>
<g filter="url(#filter0_d_188_239)">
<path d="M37 23C37 21.8954 37.8954 21 39 21H206C207.105 21 208 21.8954 208 23V23C208 24.1046 207.105 25 206 25H39C37.8954 25 37 24.1046 37 23V23Z" fill="#C7FF24"/>
</g>
<defs>
<filter id="filter0_d_188_239" x="0" y="0" width="245" height="78" filterUnits="userSpaceOnUse" color-interpolation-filters="sRGB">
<feFlood flood-opacity="0" result="BackgroundImageFix"/>
<feColorMatrix in="SourceAlpha" type="matrix" values="0 0 0 0 0 0 0 0 0 0 0 0 0 0 0 0 0 0 127 0" result="hardAlpha"/>
<feOffset dy="16"/>
<feGaussianBlur stdDeviation="18.5"/>
<feComposite in2="hardAlpha" operator="out"/>
<feColorMatrix type="matrix" values="0 0 0 0 0.14902 0 0 0 0 0.168627 0 0 0 0 0.215686 0 0 0 0.1 0"/>
<feBlend mode="normal" in2="BackgroundImageFix" result="effect1_dropShadow_188_239"/>
<feBlend mode="normal" in="SourceGraphic" in2="effect1_dropShadow_188_239" result="shape"/>
</filter>
<linearGradient id="paint0_linear_188_239" x1="122" y1="75.2315" x2="122" y2="225.806" gradientUnits="userSpaceOnUse">
<stop stop-color="#1E0A9A"/>
<stop offset="1" stop-color="#504DFF"/>
</linearGradient>
</defs>
</svg>
