<svg width="566" height="566" viewBox="0 0 566 566" fill="none" xmlns="http://www.w3.org/2000/svg">
<circle cx="283.5" cy="282.5" r="282" fill="#E1EBFF" stroke="#DCE4F4"/>
<g opacity="0.1">
<path d="M282.104 483.108C283.482 483.108 284.504 483.44 285.168 484.104C285.828 484.774 286.157 485.752 286.157 487.041V492.989H283.787V486.995C283.787 486.371 283.654 485.898 283.387 485.576C283.115 485.259 282.687 485.101 282.104 485.101C281.515 485.101 281.087 485.259 280.82 485.576C280.554 485.898 280.42 486.371 280.42 486.995V492.989H278.05V487.041C278.05 485.752 278.38 484.774 279.039 484.104C279.693 483.44 280.715 483.108 282.104 483.108Z" fill="#204ADD"/>
<path d="M271.839 485.536L271.714 487.442L269.432 487.292C268.94 487.26 268.579 487.345 268.349 487.546C268.113 487.753 267.981 488.075 267.953 488.511L267.922 488.978C267.893 489.42 267.979 489.756 268.181 489.986C268.383 490.216 268.73 490.348 269.222 490.38L271.52 490.53L271.395 492.429L268.924 492.267C267.699 492.186 266.821 491.857 266.289 491.277C265.752 490.697 265.516 489.903 265.582 488.893L265.622 488.283C265.689 487.269 266.026 486.509 266.634 486.004C267.237 485.504 268.148 485.294 269.369 485.374L271.839 485.536ZM273.6 482.905L272.969 492.532L270.664 492.381L271.026 486.859L271.081 485.789L271.28 482.753L273.6 482.905Z" fill="#204ADD"/>
<path d="M245.16 479.475L243.367 488.492L241.049 488.031L242.843 479.014L245.16 479.475ZM246.276 487.524L245.892 489.457L238.355 487.957L238.739 486.025L246.276 487.524Z" fill="#204ADD"/>
<path d="M230.161 475.738C231.517 476.101 232.444 476.714 232.942 477.577C233.436 478.439 233.511 479.509 233.168 480.787L232.694 482.559C232.35 483.842 231.744 484.74 230.878 485.253C230.005 485.769 228.895 485.847 227.548 485.486C226.202 485.126 225.282 484.504 224.789 483.622C224.29 482.743 224.213 481.662 224.556 480.379L225.031 478.607C225.374 477.328 225.976 476.44 226.839 475.942C227.702 475.444 228.809 475.376 230.161 475.738ZM229.657 477.619C229.068 477.461 228.585 477.517 228.205 477.785C227.826 478.053 227.553 478.498 227.386 479.121L226.851 481.118C226.677 481.77 226.686 482.309 226.879 482.736C227.072 483.163 227.462 483.455 228.051 483.612C228.639 483.77 229.123 483.712 229.504 483.439C229.884 483.166 230.162 482.704 230.336 482.052L230.872 480.054C231.038 479.432 231.025 478.91 230.83 478.488C230.636 478.066 230.245 477.776 229.657 477.619Z" fill="#204ADD"/>
<path d="M205.66 467.313C206.26 467.561 206.772 467.838 207.195 468.145C207.614 468.449 207.93 468.716 208.145 468.947L207.528 470.971C207.354 470.784 207.147 470.587 206.907 470.378C206.662 470.168 206.387 469.964 206.082 469.767C205.775 469.574 205.445 469.405 205.091 469.259C204.65 469.076 204.283 468.981 203.991 468.975C203.7 468.968 203.465 469.035 203.288 469.174C203.109 469.317 202.965 469.519 202.857 469.779L202.776 469.975C202.632 470.323 202.608 470.624 202.705 470.877C202.8 471.134 203.041 471.342 203.426 471.502C203.771 471.645 204.088 471.687 204.38 471.627C204.669 471.573 204.931 471.461 205.165 471.291L206.908 472.348L204.736 477.593L198.571 475.039L199.316 473.24L203.466 474.958L204.046 473.557L204.541 472.421L204.471 472.393C204.163 472.717 203.795 472.927 203.369 473.023C202.942 473.118 202.429 473.042 201.829 472.794C201.039 472.466 200.556 471.988 200.381 471.36C200.203 470.736 200.29 470.001 200.64 469.155L200.761 468.862C201.02 468.239 201.36 467.746 201.783 467.382C202.204 467.022 202.732 466.827 203.366 466.796C203.998 466.769 204.763 466.941 205.66 467.313Z" fill="#204ADD"/>
<path d="M196.902 463.637L187.273 469.645L185.58 468.81L195.189 462.792L196.902 463.637ZM190.658 460.289C191.326 460.618 191.749 461.045 191.928 461.571C192.104 462.101 192.026 462.703 191.694 463.375L191.461 463.849C191.133 464.513 190.707 464.934 190.181 465.112C189.649 465.293 189.051 465.219 188.388 464.892C187.72 464.563 187.296 464.135 187.118 463.61C186.935 463.082 187.008 462.484 187.338 461.816L187.571 461.342C187.901 460.674 188.332 460.25 188.864 460.069C189.392 459.886 189.99 459.959 190.658 460.289ZM190.077 461.467C189.86 461.36 189.664 461.347 189.489 461.429C189.314 461.511 189.16 461.688 189.026 461.958L188.719 462.581C188.586 462.852 188.54 463.082 188.581 463.271C188.621 463.464 188.749 463.614 188.965 463.721C189.182 463.828 189.379 463.838 189.556 463.752C189.727 463.667 189.879 463.49 190.012 463.219L190.319 462.596C190.453 462.325 190.499 462.096 190.457 461.907C190.416 461.718 190.289 461.571 190.077 461.467ZM194.111 467.555C194.779 467.884 195.204 468.313 195.387 468.841C195.566 469.366 195.489 469.965 195.158 470.638L194.924 471.112C194.594 471.78 194.167 472.203 193.641 472.382C193.109 472.562 192.509 472.488 191.841 472.159C191.173 471.829 190.75 471.399 190.574 470.869C190.391 470.341 190.465 469.743 190.794 469.075L191.028 468.601C191.355 467.938 191.785 467.516 192.317 467.335C192.845 467.152 193.443 467.225 194.111 467.555ZM193.533 468.726C193.317 468.619 193.123 468.608 192.952 468.692C192.777 468.774 192.623 468.95 192.489 469.221L192.179 469.851C192.048 470.117 192.003 470.345 192.044 470.534C192.079 470.725 192.205 470.874 192.422 470.981C192.638 471.087 192.835 471.098 193.012 471.011C193.188 470.929 193.341 470.755 193.472 470.489L193.783 469.859C193.916 469.588 193.962 469.358 193.921 469.17C193.879 468.981 193.75 468.833 193.533 468.726Z" fill="#204ADD"/>
<path d="M171.219 448.718C172.361 449.481 173.011 450.351 173.169 451.328C173.32 452.307 173.021 453.357 172.272 454.478L171.32 455.903C170.585 457.004 169.737 457.666 168.776 457.889C167.813 458.117 166.766 457.854 165.637 457.099C165.335 456.898 165.072 456.689 164.848 456.472C164.623 456.256 164.433 456.038 164.277 455.818C164.118 455.603 163.991 455.394 163.897 455.192L164.876 453.413C165.036 453.708 165.233 454.003 165.466 454.298C165.692 454.594 165.999 454.872 166.388 455.132C166.987 455.532 167.538 455.667 168.042 455.538C168.539 455.41 168.98 455.057 169.366 454.48L170.213 453.212C170.596 452.638 170.751 452.094 170.678 451.579C170.6 451.061 170.241 450.588 169.601 450.161C169.224 449.909 168.854 449.734 168.49 449.636C168.125 449.538 167.772 449.478 167.43 449.455L168.724 447.832C168.947 447.842 169.194 447.876 169.463 447.935C169.729 447.998 170.011 448.093 170.308 448.219C170.601 448.342 170.905 448.508 171.219 448.718Z" fill="#204ADD"/>
<path d="M163.702 443.699L155.637 449.67L152.822 447.51L156.515 438.184L158.408 439.636L155.104 447.302L155.242 447.407L161.809 442.246L163.702 443.699ZM160.456 444.072L159.339 445.527L155.89 442.88L157.007 441.425L160.456 444.072Z" fill="#204ADD"/>
<path d="M151.173 433.303C151.509 433.598 151.805 433.898 152.061 434.202C152.316 434.499 152.534 434.788 152.717 435.068C152.892 435.349 153.037 435.607 153.152 435.842L151.872 437.611C151.696 437.209 151.457 436.768 151.154 436.289C150.849 435.813 150.467 435.374 150.009 434.973C149.566 434.585 149.204 434.364 148.923 434.311C148.634 434.259 148.385 434.352 148.176 434.59L148.141 434.63C148.002 434.789 147.932 434.956 147.933 435.13C147.927 435.305 147.987 435.523 148.115 435.782C148.235 436.041 148.421 436.368 148.671 436.762C149.046 437.358 149.322 437.898 149.5 438.382C149.674 438.862 149.723 439.314 149.647 439.736C149.568 440.162 149.341 440.589 148.966 441.016L148.902 441.09C148.324 441.748 147.66 442.056 146.908 442.012C146.152 441.966 145.34 441.561 144.469 440.797C143.947 440.34 143.537 439.899 143.238 439.477C142.935 439.051 142.707 438.659 142.551 438.302L143.732 436.647C143.9 437.042 144.129 437.45 144.416 437.87C144.697 438.29 145.048 438.684 145.468 439.052C145.763 439.311 146.017 439.491 146.23 439.591C146.44 439.688 146.62 439.719 146.771 439.684C146.919 439.653 147.051 439.571 147.167 439.438L147.187 439.416C147.306 439.28 147.373 439.127 147.387 438.959C147.397 438.787 147.344 438.566 147.226 438.295C147.105 438.021 146.905 437.665 146.626 437.227C146.253 436.638 145.976 436.114 145.796 435.656C145.609 435.197 145.552 434.762 145.625 434.351C145.691 433.94 145.918 433.513 146.306 433.071L146.385 432.98C147.026 432.249 147.743 431.908 148.538 431.956C149.33 432.008 150.208 432.456 151.173 433.303Z" fill="#204ADD"/>
<path d="M141.678 424.724L143.348 426.395L136.527 433.216L134.856 431.546L141.678 424.724ZM137.61 420.657L139.286 422.333L132.465 429.154L130.789 427.478L137.61 420.657ZM138.203 429.619L134.472 425.888L135.865 424.495L139.596 428.226L138.203 429.619Z" fill="#204ADD"/>
<path d="M133.682 416.308L132.28 417.537L130.603 415.625C130.304 415.284 130.027 415.099 129.773 415.068C129.514 415.033 129.257 415.128 129 415.354L128.903 415.439C128.646 415.664 128.517 415.907 128.518 416.168C128.512 416.428 128.663 416.733 128.972 417.085L130.659 419.009L129.365 420.144L127.717 418.265C127.429 417.936 127.16 417.76 126.912 417.737C126.664 417.713 126.417 417.809 126.171 418.025L126.114 418.075C125.872 418.287 125.75 418.515 125.749 418.757C125.743 419.003 125.885 419.29 126.174 419.619L127.826 421.504L126.458 422.703L124.642 420.631C123.872 419.754 123.467 418.994 123.427 418.353C123.383 417.716 123.647 417.146 124.218 416.645L124.303 416.571C124.735 416.192 125.169 416.012 125.607 416.03C126.041 416.044 126.484 416.279 126.935 416.732L126.998 416.678C126.602 416.081 126.44 415.534 126.512 415.036C126.583 414.538 126.879 414.061 127.397 413.607L127.55 413.472C128.231 412.875 128.922 412.624 129.621 412.72C130.314 412.815 131.045 413.302 131.815 414.18L133.682 416.308ZM134.792 417.574L127.538 423.935L126.045 422.232L133.298 415.871L134.792 417.574Z" fill="#204ADD"/>
<path d="M126.054 407.292L116.718 410.973L114.558 408.159L120.539 400.106L121.991 401.998L116.817 408.547L116.923 408.685L124.602 405.4L126.054 407.292ZM122.822 406.813L121.367 407.93L118.72 404.48L120.175 403.364L122.822 406.813Z" fill="#204ADD"/>
<path d="M116.134 393.233C116.897 394.376 117.164 395.428 116.937 396.392C116.702 397.354 116.024 398.209 114.902 398.959L113.477 399.911C112.377 400.646 111.34 400.933 110.367 400.772C109.39 400.614 108.524 399.97 107.769 398.84C107.568 398.539 107.405 398.245 107.28 397.959C107.156 397.673 107.063 397.399 107.003 397.137C106.939 396.877 106.901 396.636 106.891 396.413L108.477 395.144C108.512 395.478 108.581 395.825 108.683 396.187C108.779 396.547 108.956 396.921 109.216 397.311C109.616 397.909 110.074 398.245 110.589 398.318C111.097 398.39 111.64 398.233 112.217 397.848L113.485 397C114.058 396.617 114.409 396.174 114.539 395.67C114.665 395.162 114.514 394.587 114.087 393.947C113.835 393.571 113.56 393.267 113.261 393.037C112.962 392.807 112.659 392.617 112.352 392.465L114.168 391.46C114.37 391.555 114.585 391.681 114.811 391.838C115.033 391.999 115.257 392.194 115.484 392.424C115.707 392.65 115.924 392.919 116.134 393.233Z" fill="#204ADD"/>
<path d="M108.534 381.259L106.258 385.772L106.552 386.282L105.323 386.991L105.029 386.481L100.198 386.115L98.8616 383.801L104.768 384.339L104.311 384.603L107.163 378.886L108.534 381.259ZM111.266 385.992L102.911 390.816L101.741 388.789L110.096 383.965L111.266 385.992Z" fill="#204ADD"/>
<path d="M97.5913 358.105C98.1286 359.402 98.2066 360.511 97.8253 361.431C97.4421 362.347 96.6391 363.058 95.4163 363.565L93.7216 364.267C92.4942 364.775 91.4132 364.842 90.4787 364.466C89.5377 364.088 88.8004 363.255 88.267 361.967C87.7335 360.679 87.6667 359.571 88.0666 358.643C88.4599 357.712 89.2703 356.992 90.4978 356.484L92.1925 355.782C93.4152 355.275 94.4869 355.213 95.4074 355.594C96.328 355.975 97.0559 356.812 97.5913 358.105ZM95.792 358.85C95.559 358.288 95.2206 357.937 94.7769 357.8C94.3331 357.662 93.8137 357.717 93.2186 357.963L91.3077 358.755C90.6847 359.013 90.2626 359.348 90.0415 359.761C89.8203 360.174 89.8263 360.662 90.0593 361.225C90.2923 361.787 90.633 362.136 91.0814 362.272C91.5298 362.408 92.0655 362.346 92.6885 362.088L94.5994 361.297C95.1945 361.05 95.6003 360.722 95.8168 360.311C96.0333 359.9 96.025 359.413 95.792 358.85Z" fill="#204ADD"/>
<path d="M83.9389 349.75L89.8043 345.001L89.7703 344.901L85.9443 346.311L83.0994 347.277L82.3763 345.147L91.5187 342.043L92.5354 345.038L86.5515 349.931L86.583 350.024L90.4948 348.585L93.404 347.597L94.1271 349.727L84.9847 352.831L83.9389 349.75Z" fill="#204ADD"/>
<path d="M87.0394 324.825L77.5776 326.708L77.1269 324.442L86.5888 322.56L87.0394 324.825ZM86.9054 324.152L84.9731 324.536L83.789 318.584L85.7214 318.199L86.9054 324.152ZM82.9037 324.27L81.0454 324.64L80.0263 319.517L81.8846 319.147L82.9037 324.27ZM79.3552 325.661L77.445 326.041L76.2728 320.148L78.1829 319.768L79.3552 325.661Z" fill="#204ADD"/>
<path d="M84.3495 309.308L75.1297 313.186L74.8104 310.762L82.384 307.853L82.3613 307.681L74.2922 306.825L73.9739 304.408L83.8824 305.76L84.3495 309.308Z" fill="#204ADD"/>
<path d="M83.1934 298.867L73.5668 299.498L73.4158 297.193L83.0423 296.562L83.1934 298.867ZM83.1485 298.181L81.1825 298.31L80.7855 292.254L82.7515 292.125L83.1485 298.181ZM79.1655 297.777L77.2748 297.901L76.9332 292.688L78.8239 292.564L79.1655 297.777ZM75.4658 298.692L73.5224 298.82L73.1294 292.824L75.0728 292.697L75.4658 298.692Z" fill="#204ADD"/>
<path d="M82.3105 280.783L80.4913 280.972C80.1692 281.002 79.9076 281.065 79.7063 281.161C79.4999 281.256 79.3489 281.402 79.2533 281.599C79.1527 281.795 79.1024 282.057 79.1024 282.384L79.0948 284.565H77.2907L77.2831 282.293C77.2831 281.8 77.1749 281.445 76.9585 281.229C76.7421 281.012 76.4175 280.904 75.9848 280.904H75.8338C75.406 280.904 75.0865 281.012 74.8751 281.229C74.6587 281.44 74.5505 281.797 74.5505 282.301V284.58H72.6633V281.961C72.6633 280.778 72.8923 279.915 73.3503 279.372C73.8082 278.823 74.4675 278.549 75.328 278.549H75.5243C76.1735 278.549 76.6792 278.715 77.0416 279.047C77.4039 279.379 77.6102 279.885 77.6606 280.564H77.9927L77.6681 281.048C77.7084 280.464 77.8291 280.011 78.0304 279.689C78.2317 279.367 78.5136 279.13 78.8759 278.979C79.2332 278.823 79.6786 278.71 80.212 278.64L82.3105 278.36V280.783ZM82.3105 286.203H72.6633V283.909H77.9399L78.8155 283.893H82.3105V286.203Z" fill="#204ADD"/>
<path d="M80.3965 270.279L73.0701 273.105L73.2315 270.642L76.2115 269.611L77.8253 269.112L77.8332 268.992L76.2979 268.293L73.4774 266.89L73.6388 264.427L80.5347 268.17L80.3965 270.279ZM82.9054 270.55L78.2729 270.246L78.425 267.926L83.0575 268.229L82.9054 270.55Z" fill="#204ADD"/>
<path d="M86.1775 244.528L77.1599 242.734L77.6209 240.417L86.6385 242.21L86.1775 244.528ZM78.1282 245.643L76.1958 245.259L77.695 237.722L79.6274 238.106L78.1282 245.643Z" fill="#204ADD"/>
<path d="M89.8337 228.925L88.0277 228.637C87.7087 228.583 87.4397 228.576 87.2205 228.616C86.9964 228.655 86.8128 228.757 86.6697 228.922C86.5217 229.085 86.4053 229.325 86.3207 229.641L85.7487 231.746L84.0061 231.279L84.5869 229.083C84.7145 228.606 84.7018 228.236 84.5488 227.97C84.3958 227.705 84.1103 227.517 83.6922 227.405L83.5464 227.366C83.1332 227.255 82.7965 227.277 82.5364 227.431C82.2726 227.579 82.0757 227.897 81.9454 228.383L81.3554 230.585L79.5325 230.096L80.2105 227.566C80.5166 226.424 80.9611 225.649 81.5441 225.243C82.1284 224.832 82.8362 224.737 83.6674 224.96L83.857 225.011C84.4841 225.179 84.9296 225.47 85.1937 225.885C85.4577 226.299 85.5261 226.841 85.3989 227.511L85.7197 227.596L85.2811 227.979C85.4711 227.426 85.705 227.019 85.9828 226.76C86.2606 226.501 86.594 226.346 86.9831 226.294C87.3686 226.236 87.8281 226.242 88.3616 226.312L90.4609 226.585L89.8337 228.925ZM88.431 234.161L79.1125 231.664L79.7064 229.447L84.8031 230.813L85.6528 231.025L89.0288 231.93L88.431 234.161Z" fill="#204ADD"/>
<path d="M92.1155 221.22L83.8684 215.503L85.0088 212.143L95.0273 212.643L94.2605 214.901L85.9402 214.237L85.8844 214.402L92.8823 218.961L92.1155 221.22ZM90.7186 218.267L88.9816 217.677L90.3792 213.56L92.1162 214.15L90.7186 218.267Z" fill="#204ADD"/>
<path d="M89.0394 201.719L96.5806 202.016L96.621 201.918L92.8146 200.456L90.0389 199.306L90.8997 197.228L99.8196 200.922L98.6092 203.845L90.884 203.578L90.8464 203.669L94.7366 205.165L97.575 206.341L96.7142 208.419L87.7943 204.725L89.0394 201.719Z" fill="#204ADD"/>
<path d="M103.331 194.063C103.133 194.464 102.92 194.828 102.692 195.153C102.471 195.476 102.249 195.762 102.025 196.011C101.799 196.253 101.588 196.46 101.39 196.632L99.3505 195.853C99.6933 195.579 100.057 195.234 100.442 194.818C100.822 194.399 101.147 193.917 101.416 193.371C101.677 192.843 101.796 192.436 101.774 192.15C101.75 191.858 101.596 191.641 101.312 191.501L101.264 191.478C101.075 191.384 100.896 191.361 100.727 191.407C100.556 191.446 100.362 191.56 100.145 191.751C99.9253 191.934 99.6578 192.198 99.3424 192.542C98.8636 193.057 98.4135 193.464 97.992 193.761C97.5727 194.054 97.1494 194.218 96.722 194.254C96.29 194.288 95.8191 194.179 95.309 193.928L95.221 193.884C94.4357 193.497 93.9667 192.935 93.8141 192.197C93.6637 191.455 93.8445 190.565 94.3565 189.527C94.6636 188.905 94.9827 188.394 95.3136 187.996C95.6467 187.594 95.9656 187.271 96.2704 187.029L98.1749 187.741C97.8365 188.006 97.5019 188.332 97.1709 188.719C96.8377 189.099 96.5475 189.539 96.3004 190.04C96.1268 190.392 96.0193 190.684 95.9778 190.916C95.9385 191.144 95.9553 191.326 96.0281 191.463C96.0963 191.597 96.2094 191.704 96.3674 191.782L96.3945 191.795C96.557 191.875 96.7214 191.9 96.8878 191.87C97.0564 191.835 97.2561 191.726 97.4869 191.542C97.7199 191.354 98.0121 191.069 98.3633 190.687C98.8354 190.173 99.2698 189.77 99.6665 189.478C100.061 189.179 100.466 189.011 100.882 188.975C101.296 188.932 101.767 189.041 102.295 189.301L102.404 189.355C103.275 189.784 103.79 190.389 103.95 191.169C104.105 191.947 103.899 192.912 103.331 194.063Z" fill="#204ADD"/>
<path d="M107.744 185.128L100.77 177.912L102.544 174.839L112.273 177.283L111.08 179.349L103.049 177.075L102.962 177.225L108.936 183.062L107.744 185.128ZM106.95 181.959L105.361 181.042L107.535 177.276L109.124 178.193L106.95 181.959Z" fill="#204ADD"/>
<path d="M116.935 170.585C116.171 171.727 115.301 172.377 114.324 172.535C113.345 172.687 112.295 172.387 111.174 171.638L109.749 170.686C108.649 169.951 107.987 169.103 107.763 168.142C107.535 167.179 107.798 166.133 108.553 165.003C108.755 164.702 108.964 164.439 109.18 164.214C109.397 163.99 109.615 163.799 109.834 163.643C110.049 163.484 110.258 163.358 110.46 163.263L112.239 164.242C111.944 164.403 111.65 164.599 111.355 164.832C111.059 165.058 110.781 165.365 110.521 165.754C110.121 166.353 109.986 166.904 110.115 167.408C110.243 167.905 110.595 168.346 111.173 168.732L112.441 169.579C113.014 169.962 113.558 170.117 114.073 170.044C114.591 169.966 115.064 169.607 115.492 168.967C115.743 168.59 115.918 168.22 116.016 167.856C116.114 167.492 116.175 167.139 116.197 166.797L117.821 168.09C117.811 168.313 117.776 168.56 117.717 168.829C117.654 169.096 117.56 169.377 117.434 169.675C117.311 169.968 117.144 170.271 116.935 170.585Z" fill="#204ADD"/>
<path d="M123.289 161.329L115.995 155.732L117.433 153.857L124.727 159.455L123.289 161.329ZM115.576 158.77L114.013 157.57L118.691 151.474L120.254 152.673L115.576 158.77Z" fill="#204ADD"/>
<path d="M133.11 149.363L131.547 151.146L124.294 144.785L125.857 143.003L133.11 149.363Z" fill="#204ADD"/>
<path d="M142.293 140.012C141.3 141.005 140.306 141.501 139.309 141.501C138.317 141.498 137.352 141.028 136.416 140.092L135.119 138.795C134.18 137.855 133.705 136.882 133.694 135.875C133.684 134.861 134.171 133.861 135.157 132.875C136.142 131.89 137.141 131.404 138.151 131.418C139.162 131.425 140.137 131.898 141.076 132.838L142.373 134.135C143.309 135.071 143.777 136.037 143.777 137.033C143.777 138.03 143.283 139.023 142.293 140.012ZM140.916 138.635C141.347 138.204 141.541 137.758 141.498 137.295C141.455 136.832 141.206 136.373 140.751 135.918L139.288 134.455C138.811 133.978 138.34 133.717 137.874 133.671C137.407 133.624 136.959 133.817 136.529 134.247C136.098 134.678 135.906 135.126 135.952 135.592C135.998 136.058 136.26 136.53 136.737 137.007L138.199 138.469C138.655 138.925 139.114 139.174 139.576 139.217C140.039 139.259 140.486 139.065 140.916 138.635Z" fill="#204ADD"/>
<path d="M144.79 124.2L151.422 127.802L151.501 127.732L148.734 124.737L146.753 122.478L148.445 120.995L154.81 128.254L152.432 130.339L145.622 126.683L145.548 126.748L148.375 129.811L150.401 132.121L148.709 133.604L142.343 126.345L144.79 124.2Z" fill="#204ADD"/>
<path d="M204.91 99.8302L204.945 86.7589L206.828 85.9789L206.786 99.0531L204.91 99.8302Z" fill="#204ADD"/>
<path d="M217.026 95.1051L217.916 82.064L219.846 81.4089L218.949 94.4523L217.026 95.1051Z" fill="#204ADD"/>
<path d="M284.183 81.9098C282.804 81.9098 281.782 81.5776 281.118 80.9134C280.459 80.244 280.129 79.2652 280.129 77.9769V72.0286H282.499V78.0222C282.499 78.6462 282.633 79.1193 282.899 79.4414C283.171 79.7584 283.599 79.9169 284.183 79.9169C284.771 79.9169 285.199 79.7584 285.466 79.4414C285.733 79.1193 285.866 78.6462 285.866 78.0222V72.0286H288.236V77.9769C288.236 79.2652 287.907 80.244 287.247 80.9134C286.593 81.5776 285.572 81.9098 284.183 81.9098Z" fill="#204ADD"/>
<path d="M294.447 79.4836L294.572 77.5779L296.854 77.7275C297.346 77.7597 297.707 77.6749 297.937 77.4732C298.173 77.2667 298.305 76.945 298.334 76.5081L298.364 76.0411C298.393 75.5992 298.307 75.2632 298.105 75.0331C297.903 74.803 297.556 74.6719 297.064 74.6396L294.767 74.489L294.891 72.5908L297.362 72.7528C298.587 72.8331 299.466 73.163 299.997 73.7425C300.534 74.3224 300.77 75.117 300.704 76.1264L300.664 76.7365C300.597 77.7509 300.26 78.5105 299.652 79.0153C299.049 79.5154 298.138 79.7255 296.917 79.6455L294.447 79.4836ZM292.686 82.1142L293.317 72.4877L295.622 72.6387L295.26 78.1601L295.205 79.2307L295.006 82.2663L292.686 82.1142Z" fill="#204ADD"/>
<path d="M321.125 85.5447L322.918 76.5271L325.236 76.988L323.442 86.0057L321.125 85.5447ZM320.009 77.4954L320.393 75.563L327.93 77.0622L327.546 78.9945L320.009 77.4954Z" fill="#204ADD"/>
<path d="M336.125 89.2809C334.768 88.9175 333.841 88.3044 333.343 87.4415C332.85 86.5799 332.774 85.5099 333.117 84.2314L333.592 82.4596C333.935 81.1763 334.541 80.2783 335.407 79.7655C336.28 79.2492 337.39 79.1714 338.737 79.5322C340.083 79.893 341.003 80.5146 341.496 81.3969C341.995 82.2757 342.073 83.3567 341.729 84.64L341.254 86.4118C340.911 87.6903 340.309 88.5786 339.446 89.0768C338.583 89.5749 337.476 89.643 336.125 89.2809ZM336.629 87.3997C337.217 87.5573 337.7 87.502 338.08 87.2337C338.459 86.9654 338.732 86.5202 338.899 85.8979L339.434 83.9001C339.609 83.2487 339.599 82.7096 339.406 82.2828C339.213 81.8559 338.823 81.5637 338.235 81.4061C337.646 81.2485 337.162 81.3063 336.781 81.5794C336.401 81.8526 336.123 82.3148 335.949 82.9662L335.413 84.9641C335.247 85.5863 335.261 86.1084 335.455 86.5303C335.649 86.9523 336.04 87.2421 336.629 87.3997Z" fill="#204ADD"/>
<path d="M360.625 97.7048C360.025 97.4564 359.514 97.1791 359.09 96.8731C358.671 96.5689 358.355 96.3015 358.14 96.0708L358.757 94.0471C358.931 94.2333 359.138 94.4307 359.378 94.6392C359.623 94.8497 359.898 95.0535 360.203 95.2507C360.51 95.4432 360.841 95.6126 361.194 95.759C361.636 95.9419 362.002 96.0366 362.294 96.043C362.585 96.0493 362.82 95.983 362.997 95.8441C363.176 95.7005 363.32 95.4985 363.428 95.2381L363.509 95.0428C363.653 94.6941 363.677 94.3935 363.58 94.1409C363.485 93.8837 363.245 93.6751 362.859 93.5153C362.515 93.3728 362.197 93.3311 361.906 93.3901C361.616 93.4445 361.354 93.5568 361.121 93.7268L359.377 92.6696L361.549 87.4251L367.714 89.9787L366.969 91.778L362.82 90.0592L362.239 91.461L361.744 92.5961L361.814 92.625C362.123 92.3007 362.49 92.0907 362.916 91.995C363.343 91.8992 363.856 91.9756 364.456 92.224C365.246 92.5514 365.729 93.0293 365.905 93.6576C366.082 94.2812 365.996 95.0161 365.645 95.8623L365.524 96.1552C365.266 96.7783 364.925 97.2718 364.502 97.6358C364.081 97.9951 363.553 98.1905 362.919 98.2221C362.287 98.2489 361.522 98.0765 360.625 97.7048Z" fill="#204ADD"/>
<path d="M369.384 101.383L379.013 95.3746L380.705 96.2092L371.097 102.227L369.384 101.383ZM375.627 104.731C374.959 104.402 374.536 103.974 374.358 103.448C374.181 102.918 374.259 102.317 374.591 101.644L374.824 101.17C375.152 100.507 375.578 100.086 376.104 99.9076C376.636 99.7268 377.234 99.8001 377.898 100.127C378.566 100.457 378.989 100.884 379.167 101.41C379.35 101.938 379.277 102.536 378.948 103.204L378.714 103.678C378.384 104.346 377.953 104.77 377.421 104.951C376.893 105.134 376.295 105.06 375.627 104.731ZM376.208 103.553C376.425 103.66 376.621 103.672 376.796 103.59C376.971 103.508 377.125 103.332 377.259 103.061L377.566 102.438C377.699 102.167 377.745 101.938 377.704 101.749C377.665 101.555 377.537 101.405 377.32 101.298C377.103 101.192 376.906 101.181 376.729 101.268C376.558 101.352 376.406 101.53 376.273 101.801L375.966 102.423C375.832 102.694 375.786 102.924 375.828 103.113C375.869 103.302 375.996 103.448 376.208 103.553ZM372.174 97.4647C371.506 97.1353 371.081 96.7067 370.898 96.1788C370.719 95.6531 370.796 95.054 371.128 94.3815L371.361 93.9076C371.691 93.2396 372.118 92.8164 372.644 92.638C373.176 92.4572 373.777 92.5316 374.445 92.861C375.113 93.1904 375.535 93.6202 375.711 94.1504C375.894 94.6783 375.821 95.2762 375.491 95.9442L375.257 96.4181C374.93 97.0816 374.5 97.5037 373.968 97.6844C373.44 97.8674 372.842 97.7942 372.174 97.4647ZM372.752 96.2935C372.968 96.4003 373.162 96.4116 373.333 96.3274C373.508 96.2454 373.662 96.0691 373.796 95.7982L374.106 95.1686C374.237 94.9023 374.282 94.6748 374.241 94.4859C374.206 94.2948 374.08 94.1459 373.864 94.039C373.647 93.9322 373.45 93.922 373.273 94.0085C373.098 94.0905 372.944 94.2646 372.813 94.5309L372.503 95.1606C372.369 95.4314 372.323 95.6612 372.365 95.85C372.406 96.0388 372.535 96.1867 372.752 96.2935Z" fill="#204ADD"/>
<path d="M395.069 116.301C393.926 115.538 393.276 114.667 393.118 113.69C392.967 112.712 393.266 111.662 394.015 110.54L394.967 109.115C395.703 108.015 396.55 107.353 397.511 107.129C398.474 106.901 399.521 107.165 400.651 107.92C400.952 108.121 401.215 108.33 401.439 108.546C401.664 108.763 401.854 108.981 402.01 109.2C402.169 109.415 402.296 109.624 402.39 109.827L401.411 111.605C401.251 111.31 401.054 111.016 400.821 110.721C400.596 110.425 400.288 110.147 399.899 109.887C399.301 109.487 398.749 109.352 398.245 109.481C397.748 109.609 397.307 109.962 396.921 110.539L396.074 111.807C395.691 112.38 395.536 112.924 395.61 113.439C395.687 113.957 396.046 114.43 396.686 114.858C397.063 115.11 397.433 115.284 397.797 115.382C398.162 115.481 398.515 115.541 398.857 115.564L397.563 117.187C397.34 117.177 397.094 117.142 396.824 117.084C396.558 117.02 396.276 116.926 395.979 116.8C395.686 116.677 395.382 116.51 395.069 116.301Z" fill="#204ADD"/>
<path d="M402.583 121.322L410.648 115.35L413.463 117.51L409.77 126.836L407.877 125.384L411.181 117.719L411.043 117.613L404.476 122.774L402.583 121.322ZM405.829 120.949L406.946 119.493L410.395 122.14L409.279 123.595L405.829 120.949Z" fill="#204ADD"/>
<path d="M415.114 131.717C414.778 131.422 414.482 131.122 414.226 130.818C413.972 130.521 413.753 130.232 413.57 129.951C413.395 129.67 413.25 129.412 413.135 129.178L414.415 127.409C414.591 127.811 414.83 128.252 415.133 128.731C415.438 129.207 415.82 129.645 416.278 130.047C416.721 130.435 417.083 130.655 417.365 130.708C417.653 130.761 417.902 130.668 418.111 130.429L418.146 130.39C418.285 130.231 418.355 130.064 418.354 129.889C418.36 129.714 418.3 129.497 418.172 129.238C418.052 128.978 417.866 128.652 417.616 128.258C417.242 127.662 416.965 127.122 416.787 126.638C416.613 126.157 416.564 125.706 416.64 125.284C416.719 124.858 416.946 124.431 417.321 124.003L417.386 123.93C417.963 123.271 418.627 122.964 419.379 123.007C420.135 123.054 420.948 123.459 421.818 124.222C422.34 124.68 422.75 125.12 423.049 125.543C423.352 125.969 423.581 126.36 423.736 126.717L422.555 128.373C422.387 127.977 422.158 127.57 421.871 127.15C421.59 126.73 421.24 126.335 420.82 125.967C420.524 125.708 420.27 125.529 420.057 125.429C419.847 125.332 419.667 125.301 419.516 125.336C419.368 125.367 419.236 125.449 419.12 125.581L419.1 125.604C418.981 125.74 418.914 125.892 418.9 126.061C418.89 126.233 418.944 126.454 419.061 126.724C419.183 126.998 419.382 127.354 419.661 127.792C420.035 128.381 420.311 128.905 420.491 129.364C420.678 129.822 420.735 130.257 420.662 130.669C420.597 131.08 420.37 131.506 419.981 131.949L419.902 132.04C419.261 132.77 418.544 133.111 417.749 133.064C416.957 133.012 416.079 132.563 415.114 131.717Z" fill="#204ADD"/>
<path d="M424.606 140.295L422.936 138.625L429.757 131.803L431.428 133.474L424.606 140.295ZM428.674 144.363L426.998 142.687L433.819 135.865L435.495 137.541L428.674 144.363ZM428.081 135.401L431.812 139.132L430.419 140.525L426.688 136.794L428.081 135.401Z" fill="#204ADD"/>
<path d="M432.605 148.711L434.007 147.482L435.685 149.395C435.983 149.735 436.26 149.921 436.515 149.952C436.773 149.987 437.03 149.891 437.288 149.666L437.384 149.581C437.641 149.355 437.77 149.112 437.769 148.852C437.775 148.592 437.624 148.286 437.315 147.934L435.628 146.01L436.922 144.875L438.57 146.754C438.858 147.083 439.127 147.26 439.375 147.283C439.623 147.306 439.87 147.21 440.116 146.994L440.173 146.945C440.415 146.732 440.537 146.505 440.538 146.263C440.544 146.017 440.402 145.729 440.113 145.4L438.461 143.516L439.829 142.317L441.645 144.388C442.415 145.266 442.82 146.025 442.86 146.666C442.904 147.304 442.64 147.873 442.069 148.374L441.984 148.449C441.552 148.827 441.118 149.007 440.681 148.989C440.246 148.975 439.803 148.741 439.352 148.287L439.289 148.342C439.685 148.938 439.847 149.486 439.776 149.984C439.704 150.482 439.409 150.958 438.89 151.413L438.737 151.547C438.056 152.144 437.365 152.395 436.666 152.299C435.973 152.204 435.242 151.717 434.472 150.84L432.605 148.711ZM431.496 147.446L438.749 141.085L440.242 142.788L432.989 149.148L431.496 147.446Z" fill="#204ADD"/>
<path d="M440.233 157.727L449.569 154.046L451.729 156.861L445.748 164.914L444.296 163.021L449.47 156.472L449.365 156.334L441.685 159.62L440.233 157.727ZM443.465 158.206L444.92 157.09L447.567 160.539L446.112 161.656L443.465 158.206Z" fill="#204ADD"/>
<path d="M450.154 171.784C449.39 170.642 449.123 169.589 449.351 168.626C449.585 167.664 450.264 166.808 451.385 166.059L452.81 165.107C453.91 164.372 454.947 164.084 455.92 164.245C456.897 164.403 457.763 165.047 458.518 166.177C458.719 166.478 458.882 166.772 459.007 167.058C459.131 167.344 459.224 167.618 459.284 167.881C459.348 168.14 459.386 168.382 459.396 168.605L457.81 169.873C457.775 169.54 457.706 169.192 457.604 168.831C457.509 168.471 457.331 168.096 457.071 167.707C456.671 167.109 456.214 166.773 455.698 166.699C455.19 166.627 454.648 166.784 454.07 167.17L452.802 168.017C452.229 168.4 451.878 168.844 451.748 169.348C451.622 169.856 451.773 170.43 452.2 171.07C452.452 171.447 452.727 171.75 453.026 171.98C453.325 172.21 453.628 172.401 453.935 172.553L452.119 173.558C451.917 173.463 451.702 173.337 451.476 173.179C451.254 173.019 451.03 172.824 450.803 172.594C450.58 172.368 450.363 172.098 450.154 171.784Z" fill="#204ADD"/>
<path d="M458.032 183.492L460.191 179.212L459.912 178.728L461.077 178.055L461.357 178.539L465.939 178.886L467.206 181.081L461.604 180.571L462.038 180.32L459.332 185.743L458.032 183.492ZM455.44 179.003L463.365 174.428L464.475 176.35L456.55 180.925L455.44 179.003Z" fill="#204ADD"/>
<path d="M468.694 206.914C468.157 205.617 468.079 204.508 468.46 203.587C468.843 202.671 469.646 201.96 470.869 201.454L472.564 200.752C473.791 200.243 474.872 200.177 475.806 200.552C476.747 200.931 477.485 201.764 478.018 203.051C478.552 204.339 478.618 205.447 478.219 206.376C477.825 207.307 477.015 208.026 475.787 208.535L474.093 209.237C472.87 209.743 471.798 209.806 470.878 209.424C469.957 209.043 469.229 208.206 468.694 206.914ZM470.493 206.168C470.726 206.731 471.065 207.081 471.508 207.219C471.952 207.356 472.471 207.302 473.067 207.055L474.977 206.264C475.6 206.006 476.023 205.67 476.244 205.257C476.465 204.844 476.459 204.356 476.226 203.794C475.993 203.231 475.652 202.882 475.204 202.747C474.755 202.611 474.22 202.672 473.597 202.93L471.686 203.722C471.091 203.968 470.685 204.297 470.468 204.708C470.252 205.119 470.26 205.606 470.493 206.168Z" fill="#204ADD"/>
<path d="M482.347 215.27L476.482 220.019L476.516 220.119L480.342 218.709L483.187 217.743L483.91 219.873L474.767 222.976L473.751 219.981L479.735 215.088L479.703 214.995L475.791 216.435L472.882 217.422L472.159 215.292L481.301 212.189L482.347 215.27Z" fill="#204ADD"/>
<path d="M479.247 240.195L488.709 238.313L489.159 240.578L479.697 242.461L479.247 240.195ZM479.381 240.869L481.313 240.484L482.497 246.437L480.565 246.821L479.381 240.869ZM483.382 240.75L485.241 240.38L486.26 245.504L484.402 245.873L483.382 240.75ZM486.931 239.359L488.841 238.979L490.013 244.873L488.103 245.253L486.931 239.359Z" fill="#204ADD"/>
<path d="M481.938 255.714L491.157 251.835L491.477 254.26L483.903 257.168L483.926 257.34L491.995 258.197L492.313 260.614L482.405 259.261L481.938 255.714Z" fill="#204ADD"/>
<path d="M483.093 266.153L492.719 265.522L492.87 267.827L483.244 268.458L483.093 266.153ZM483.138 266.838L485.104 266.709L485.501 272.765L483.535 272.894L483.138 266.838ZM487.121 267.243L489.011 267.119L489.353 272.331L487.462 272.455L487.121 267.243ZM490.82 266.327L492.764 266.2L493.157 272.196L491.213 272.323L490.82 266.327Z" fill="#204ADD"/>
<path d="M483.976 284.233L485.795 284.045C486.117 284.014 486.379 283.951 486.58 283.856C486.786 283.76 486.937 283.614 487.033 283.418C487.133 283.222 487.184 282.96 487.184 282.633L487.191 280.451H488.995L489.003 282.724C489.003 283.217 489.111 283.571 489.328 283.788C489.544 284.004 489.869 284.112 490.301 284.112H490.452C490.88 284.112 491.2 284.004 491.411 283.788C491.627 283.577 491.736 283.219 491.736 282.716V280.436H493.623V283.056C493.623 284.238 493.394 285.101 492.936 285.645C492.478 286.193 491.819 286.468 490.958 286.468H490.762C490.113 286.468 489.607 286.302 489.245 285.969C488.882 285.637 488.676 285.132 488.626 284.452H488.293L488.618 283.969C488.578 284.553 488.457 285.006 488.256 285.328C488.054 285.65 487.773 285.886 487.41 286.037C487.053 286.193 486.608 286.307 486.074 286.377L483.976 286.656V284.233ZM483.976 278.813H493.623V281.108H488.346L487.471 281.123H483.976V278.813Z" fill="#204ADD"/>
<path d="M485.89 294.738L493.216 291.913L493.055 294.376L490.075 295.406L488.461 295.906L488.453 296.026L489.988 296.724L492.809 298.127L492.647 300.59L485.751 296.848L485.89 294.738ZM483.381 294.468L488.013 294.772L487.861 297.092L483.229 296.788L483.381 294.468Z" fill="#204ADD"/>
<path d="M480.109 320.492L489.126 322.286L488.665 324.603L479.648 322.809L480.109 320.492ZM488.158 319.376L490.09 319.761L488.591 327.297L486.659 326.913L488.158 319.376Z" fill="#204ADD"/>
<path d="M476.452 336.091L478.258 336.38C478.577 336.434 478.846 336.441 479.066 336.401C479.29 336.362 479.473 336.26 479.616 336.095C479.764 335.931 479.881 335.692 479.965 335.376L480.537 333.27L482.28 333.737L481.699 335.934C481.572 336.41 481.584 336.781 481.737 337.046C481.89 337.311 482.176 337.5 482.594 337.612L482.74 337.651C483.153 337.761 483.49 337.74 483.75 337.585C484.013 337.437 484.21 337.12 484.341 336.634L484.931 334.432L486.754 334.92L486.076 337.451C485.77 338.593 485.325 339.367 484.742 339.774C484.158 340.185 483.45 340.279 482.619 340.057L482.429 340.006C481.802 339.838 481.357 339.546 481.092 339.132C480.828 338.717 480.76 338.175 480.887 337.506L480.566 337.42L481.005 337.037C480.815 337.591 480.581 337.997 480.303 338.256C480.026 338.515 479.692 338.671 479.303 338.723C478.918 338.781 478.458 338.775 477.925 338.705L475.825 338.432L476.452 336.091ZM477.855 330.856L487.174 333.353L486.58 335.569L481.483 334.204L480.633 333.992L477.257 333.087L477.855 330.856Z" fill="#204ADD"/>
<path d="M474.172 343.8L482.419 349.517L481.278 352.877L471.26 352.378L472.027 350.119L480.347 350.783L480.403 350.619L473.405 346.059L474.172 343.8ZM475.569 346.754L477.305 347.343L475.908 351.461L474.171 350.871L475.569 346.754Z" fill="#204ADD"/>
<path d="M477.247 363.303L469.706 363.006L469.665 363.104L473.472 364.566L476.247 365.716L475.386 367.794L466.467 364.099L467.677 361.177L475.402 361.444L475.44 361.353L471.55 359.856L468.711 358.68L469.572 356.602L478.492 360.297L477.247 363.303Z" fill="#204ADD"/>
<path d="M462.956 370.956C463.154 370.554 463.367 370.191 463.595 369.865C463.816 369.542 464.038 369.256 464.262 369.008C464.488 368.766 464.7 368.559 464.897 368.386L466.937 369.165C466.594 369.439 466.23 369.785 465.845 370.201C465.465 370.619 465.14 371.102 464.871 371.648C464.61 372.176 464.491 372.583 464.513 372.868C464.537 373.161 464.691 373.377 464.976 373.517L465.023 373.541C465.212 373.634 465.392 373.658 465.56 373.612C465.731 373.573 465.925 373.458 466.142 373.268C466.362 373.084 466.629 372.821 466.945 372.477C467.424 371.961 467.874 371.555 468.295 371.257C468.714 370.965 469.138 370.8 469.565 370.764C469.997 370.73 470.468 370.839 470.978 371.091L471.066 371.134C471.851 371.522 472.32 372.084 472.473 372.821C472.623 373.563 472.443 374.453 471.931 375.491C471.623 376.114 471.304 376.624 470.974 377.022C470.64 377.425 470.321 377.747 470.017 377.99L468.112 377.278C468.451 377.013 468.785 376.687 469.116 376.3C469.449 375.92 469.74 375.48 469.987 374.979C470.16 374.627 470.268 374.334 470.309 374.102C470.349 373.875 470.332 373.693 470.259 373.556C470.191 373.421 470.078 373.315 469.92 373.237L469.893 373.224C469.73 373.143 469.566 373.119 469.399 373.149C469.231 373.183 469.031 373.293 468.8 373.476C468.567 373.664 468.275 373.949 467.924 374.332C467.452 374.845 467.017 375.248 466.621 375.541C466.226 375.84 465.821 376.008 465.405 376.044C464.991 376.086 464.52 375.978 463.992 375.717L463.883 375.664C463.012 375.234 462.497 374.629 462.337 373.849C462.182 373.071 462.389 372.107 462.956 370.956Z" fill="#204ADD"/>
<path d="M458.543 379.889L465.517 387.106L463.743 390.178L454.014 387.734L455.207 385.669L463.238 387.943L463.325 387.793L457.351 381.955L458.543 379.889ZM459.337 383.059L460.926 383.976L458.752 387.741L457.163 386.824L459.337 383.059Z" fill="#204ADD"/>
<path d="M449.353 394.434C450.117 393.291 450.987 392.641 451.964 392.483C452.943 392.332 453.993 392.631 455.114 393.38L456.539 394.332C457.639 395.068 458.302 395.916 458.525 396.876C458.753 397.839 458.49 398.886 457.735 400.016C457.533 400.317 457.324 400.58 457.108 400.804C456.891 401.029 456.673 401.219 456.454 401.375C456.239 401.534 456.03 401.661 455.828 401.756L454.049 400.776C454.344 400.616 454.639 400.419 454.933 400.187C455.229 399.961 455.507 399.653 455.768 399.264C456.167 398.666 456.303 398.115 456.173 397.611C456.045 397.114 455.693 396.672 455.115 396.286L453.847 395.439C453.274 395.056 452.73 394.901 452.215 394.975C451.697 395.052 451.224 395.411 450.796 396.052C450.545 396.428 450.37 396.799 450.272 397.163C450.174 397.527 450.113 397.88 450.091 398.222L448.467 396.928C448.477 396.705 448.512 396.459 448.571 396.19C448.634 395.923 448.728 395.641 448.854 395.344C448.977 395.051 449.144 394.748 449.353 394.434Z" fill="#204ADD"/>
<path d="M442.997 403.69L450.291 409.288L448.853 411.162L441.559 405.565L442.997 403.69ZM450.71 406.25L452.273 407.449L447.595 413.546L446.032 412.346L450.71 406.25Z" fill="#204ADD"/>
<path d="M433.176 415.656L434.739 413.874L441.992 420.235L440.429 422.017L433.176 415.656Z" fill="#204ADD"/>
<path d="M423.992 425.008C424.985 424.015 425.979 423.518 426.976 423.518C427.968 423.522 428.933 423.992 429.869 424.928L431.166 426.225C432.105 427.164 432.58 428.137 432.591 429.144C432.602 430.159 432.114 431.159 431.128 432.144C430.143 433.13 429.145 433.616 428.134 433.601C427.123 433.594 426.148 433.121 425.209 432.182L423.912 430.885C422.976 429.949 422.508 428.983 422.508 427.986C422.508 426.99 423.003 425.997 423.992 425.008ZM425.369 426.385C424.938 426.815 424.745 427.262 424.787 427.725C424.83 428.187 425.079 428.646 425.534 429.102L426.997 430.564C427.474 431.041 427.945 431.303 428.412 431.349C428.878 431.395 429.326 431.203 429.757 430.772C430.187 430.342 430.379 429.893 430.333 429.427C430.287 428.961 430.025 428.49 429.548 428.013L428.086 426.55C427.63 426.095 427.171 425.846 426.709 425.803C426.246 425.76 425.8 425.954 425.369 426.385Z" fill="#204ADD"/>
<path d="M421.496 440.818L414.863 437.217L414.784 437.287L417.551 440.282L419.532 442.54L417.841 444.024L411.475 436.765L413.853 434.679L420.663 438.335L420.737 438.271L417.91 435.207L415.885 432.898L417.576 431.414L423.942 438.673L421.496 440.818Z" fill="#204ADD"/>
<path d="M361.376 465.189L361.341 478.261L359.458 479.041L359.5 465.966L361.376 465.189Z" fill="#204ADD"/>
<path d="M349.26 469.914L348.37 482.956L346.44 483.611L347.337 470.567L349.26 469.914Z" fill="#204ADD"/>
</g>
</svg>
