<svg width="138" height="48" viewBox="0 0 138 48" fill="none" xmlns="http://www.w3.org/2000/svg">
<g clip-path="url(#clip0_854_1324)">
<path fill-rule="evenodd" clip-rule="evenodd" d="M10.9268 0.718327C6.62695 0.801285 3.16724 4.25495 3.16724 8.50328C3.16724 12.7516 6.62695 16.2053 10.9268 16.2882V16.2898H11.0851H12.5104L21.4638 7.48494C21.8348 7.12006 22.4364 7.12006 22.8075 7.48494L29.974 14.5325C30.345 14.8973 30.345 15.4889 29.974 15.8539L29.5307 16.2898H36.2641V0.716797H11.0891H11.0851H11.0812H10.9268V0.718327ZM10.9267 17.8471L10.4901 18.2764C10.1191 18.6414 10.1191 19.233 10.4901 19.5978L17.6566 26.6454C18.0277 27.0102 18.6293 27.0102 19.0003 26.6454L27.9471 17.8471H29.2931H29.2963C33.6693 17.8471 37.2142 21.3332 37.2142 25.6336C37.2142 29.9338 33.6693 33.4201 29.2963 33.4201H3.95905V17.8471H10.9267Z" fill="white"/>
<path fill-rule="evenodd" clip-rule="evenodd" d="M10.9268 0.718327C6.62695 0.801285 3.16724 4.25495 3.16724 8.50328C3.16724 12.7516 6.62695 16.2053 10.9268 16.2882V16.2898H11.0851H12.5104L21.4638 7.48494C21.8348 7.12006 22.4364 7.12006 22.8075 7.48494L29.974 14.5325C30.345 14.8973 30.345 15.4889 29.974 15.8539L29.5307 16.2898H36.2641V0.716797H11.0891H11.0851H11.0812H10.9268V0.718327ZM10.9267 17.8471L10.4901 18.2764C10.1191 18.6414 10.1191 19.233 10.4901 19.5978L17.6566 26.6454C18.0277 27.0102 18.6293 27.0102 19.0003 26.6454L27.9471 17.8471H29.2931H29.2963C33.6693 17.8471 37.2142 21.3332 37.2142 25.6336C37.2142 29.9338 33.6693 33.4201 29.2963 33.4201H3.95905V17.8471H10.9267Z" fill="#4D43FE"/>
<path d="M61.868 19.8662C63.5652 19.8662 64.9416 20.3787 65.9978 21.4039C67.0886 22.4291 67.6341 23.8576 67.6341 25.6894V33.9833H63.9718V26.3448C63.9718 25.3197 63.7122 24.5298 63.1929 23.9752C62.6905 23.4206 62.0067 23.1433 61.141 23.1433C60.2058 23.1433 59.4528 23.4458 58.8813 24.0508C58.3098 24.639 58.0242 25.4373 58.0242 26.4457V33.9833H54.3619V26.3701C54.3619 25.3617 54.1022 24.5718 53.5826 24.0004C53.0806 23.429 52.3881 23.1433 51.5048 23.1433C50.6045 23.1433 49.8598 23.4458 49.2713 24.0508C48.6999 24.6559 48.4143 25.4625 48.4143 26.4709V33.9833H44.752V20.2443H48.3361V22.2106C48.7344 21.4879 49.3232 20.9165 50.1025 20.4964C50.8814 20.0594 51.7302 19.8494 52.6477 19.8662C53.548 19.8662 54.3705 20.0762 55.1152 20.4964C55.8769 20.9165 56.4397 21.5132 56.8034 22.2862C57.3227 21.5299 58.0328 20.9417 58.9331 20.5216C59.8338 20.0846 60.8118 19.8662 61.868 19.8662Z" fill="#242B3D"/>
<path d="M69.5032 27.1021C69.5032 25.0686 70.213 23.3628 71.6329 21.9847C73.0701 20.573 74.8883 19.8672 77.0871 19.8672C79.2863 19.8672 81.1042 20.573 82.5414 21.9847C83.9613 23.3628 84.6714 25.0686 84.6714 27.1021C84.6714 29.1523 83.9613 30.8666 82.5414 32.2449C81.1042 33.6395 79.2863 34.3372 77.0871 34.3372C74.8883 34.3372 73.0701 33.6395 71.6329 32.2449C70.213 30.8666 69.5032 29.1523 69.5032 27.1021ZM74.2822 29.9003C75.0266 30.6564 75.9618 31.0349 77.0871 31.0349C78.1779 31.0349 79.1045 30.6564 79.8661 29.9003C80.6281 29.1105 81.0091 28.1776 81.0091 27.1021C81.0091 26.0265 80.6281 25.1022 79.8661 24.3292C79.1045 23.5729 78.1779 23.1948 77.0871 23.1948C75.9618 23.1948 75.0266 23.5729 74.2822 24.3292C73.5375 25.0686 73.1651 25.9929 73.1651 27.1021C73.1651 28.1946 73.5375 29.1272 74.2822 29.9003Z" fill="#242B3D"/>
<path d="M90.3929 33.9843H86.731V20.2453H90.3151V22.1612C90.6961 21.4722 91.2849 20.9176 92.0815 20.4974C92.8777 20.0773 93.7697 19.8672 94.7564 19.8672C96.2977 19.8672 97.6049 20.363 98.6784 21.3545C99.7522 22.3461 100.289 23.7577 100.289 25.5896V33.9843H96.6264V26.5475C96.6264 25.4719 96.3582 24.6401 95.8216 24.0519C95.2847 23.4469 94.5576 23.1443 93.6397 23.1443C92.6699 23.1443 91.8823 23.472 91.2763 24.1275C90.6875 24.7661 90.3929 25.598 90.3929 26.6232V33.9843Z" fill="#242B3D"/>
<path d="M116.641 26.7998C116.641 27.22 116.598 27.7409 116.511 28.3627H105.888C106.408 30.3122 107.784 31.287 110.018 31.287C111.663 31.287 113.187 30.8249 114.589 29.9005L116.043 32.396C114.243 33.6567 112.182 34.2867 109.862 34.2867C107.386 34.2867 105.481 33.5894 104.148 32.1944C102.832 30.8164 102.174 29.1192 102.174 27.1023C102.174 25.0016 102.858 23.279 104.226 21.9345C105.594 20.5732 107.369 19.8926 109.55 19.8926C111.611 19.8926 113.308 20.5144 114.641 21.758C115.974 23.0017 116.641 24.6823 116.641 26.7998ZM109.55 22.842C108.633 22.842 107.845 23.1025 107.187 23.6235C106.546 24.1277 106.113 24.8251 105.888 25.7159H113.083C112.909 24.8251 112.511 24.1277 111.888 23.6235C111.264 23.1025 110.485 22.842 109.55 22.842Z" fill="#242B3D"/>
<path d="M124.346 29.1933L127.566 20.2441H131.566L125.878 34.6638C125.186 36.4283 124.355 37.7308 123.385 38.5709C122.432 39.4114 121.264 39.8313 119.878 39.8313C118.805 39.8313 117.896 39.6045 117.151 39.1506L117.775 36.176C118.415 36.4786 119.021 36.6299 119.593 36.6299C120.718 36.6299 121.636 35.9071 122.346 34.4618L122.632 33.8318L116.45 20.2441H120.684L124.346 29.1933Z" fill="#242B3D"/>
<path d="M50.674 15.0325C48.1823 15.0325 46.2082 14.1215 44.752 12.2994L46.7257 9.98283C47.2346 10.5902 47.84 11.0761 48.5419 11.4405C49.2613 11.7875 49.9808 11.9611 50.7002 11.9611C51.2617 11.9611 51.7267 11.8309 52.0949 11.5706C52.4811 11.3103 52.674 10.9806 52.674 10.5815C52.674 10.0783 52.3321 9.67049 51.6475 9.35814C51.437 9.27137 50.8669 9.05445 49.9369 8.70743C49.1123 8.41241 48.4979 8.16079 48.0945 7.95258C46.445 7.17168 45.6204 5.94833 45.6204 4.28243C45.6204 3.05041 46.1117 2.02659 47.0943 1.21102C48.0596 0.412788 49.3578 0.0136719 50.9896 0.0136719C53.0249 0.0136719 54.7007 0.690425 56.0165 2.04393L54.1745 4.41258C53.1743 3.47553 52.0776 3.00703 50.8845 3.00703C50.4105 3.00703 50.0157 3.1285 49.7 3.37143C49.4017 3.59701 49.2527 3.87465 49.2527 4.20437C49.2527 4.79436 49.6738 5.22819 50.516 5.50583C52.3933 6.19992 53.5425 6.65979 53.9639 6.88538C55.5782 7.71829 56.3851 8.91564 56.3851 10.4774C56.3851 11.8136 55.8589 12.9068 54.8061 13.7571C53.7883 14.6074 52.4109 15.0325 50.674 15.0325Z" fill="#242B3D"/>
<path d="M69.6266 13.3408C68.4684 14.4514 66.8629 15.0067 64.8099 15.0067C62.757 15.0067 61.1428 14.4514 59.9673 13.3408C58.8091 12.2129 58.23 10.6598 58.23 8.68162V0.482422H61.9411V8.68162C61.9411 9.58396 62.1955 10.3041 62.7044 10.842C63.2133 11.38 63.9152 11.6489 64.8099 11.6489C65.705 11.6489 66.4069 11.38 66.9154 10.842C67.4243 10.3041 67.6788 9.58396 67.6788 8.68162V0.482422H71.3899V8.68162C71.3899 10.6772 70.8021 12.2303 69.6266 13.3408Z" fill="#242B3D"/>
<path fill-rule="evenodd" clip-rule="evenodd" d="M87.3464 2.27763C85.9953 0.837323 84.3109 0.117188 82.2932 0.117188C80.4858 0.117188 78.968 0.819983 77.7396 2.22554V0.48159H74.0552V19.9794L77.7662 16.3071V13.0276C78.9943 14.3465 80.4944 15.0059 82.2666 15.0059C84.2846 15.0059 85.969 14.2858 87.3202 12.8454C88.6713 11.4052 89.3468 9.64388 89.3468 7.56154C89.3468 5.46185 88.6799 3.70053 87.3464 2.27763ZM84.5038 10.4768C83.7671 11.2577 82.8108 11.6481 81.635 11.6481C80.4771 11.6481 79.5295 11.2577 78.7927 10.4768C78.0556 9.69594 77.6871 8.73284 77.6871 7.58758C77.6871 6.44229 78.0556 5.47919 78.7927 4.69833C79.5295 3.91744 80.4771 3.52703 81.635 3.52703C82.8108 3.52703 83.7671 3.91744 84.5038 4.69833C85.2409 5.47919 85.6095 6.44229 85.6095 7.58758C85.6095 8.73284 85.2409 9.69594 84.5038 10.4768Z" fill="#242B3D"/>
<path fill-rule="evenodd" clip-rule="evenodd" d="M105.367 7.24919C105.367 7.68302 105.323 8.22095 105.235 8.86299H94.4702C94.9967 10.8759 96.3914 11.8824 98.6549 11.8824C100.322 11.8824 101.866 11.4052 103.287 10.4508L104.761 13.0276C102.936 14.3291 100.848 14.9798 98.4969 14.9798C95.9879 14.9798 94.0577 14.2597 92.7066 12.8194C91.3731 11.3965 90.7065 9.64388 90.7065 7.56154C90.7065 5.39243 91.3994 3.6138 92.7858 2.22554C94.1718 0.819983 95.9703 0.117188 98.1812 0.117188C100.269 0.117188 101.989 0.759261 103.34 2.04334C104.691 3.32745 105.367 5.06274 105.367 7.24919ZM98.1812 3.16259C97.2512 3.16259 96.4529 3.43156 95.786 3.96949C95.1371 4.49009 94.6983 5.21023 94.4702 6.12994H101.761C101.585 5.21023 101.182 4.49009 100.55 3.96949C99.9182 3.43156 99.1289 3.16259 98.1812 3.16259Z" fill="#242B3D"/>
<path d="M107.393 14.6681H111.104V7.92656C111.104 6.50363 111.411 5.43643 112.025 4.72496C112.656 3.99616 113.516 3.63175 114.604 3.63175C115.113 3.63175 115.683 3.72719 116.315 3.91806L116.631 0.404147C116.052 0.195902 115.473 0.0917969 114.894 0.0917969C113.121 0.0917969 111.805 0.855315 110.946 2.38235V0.482208H107.393V14.6681Z" fill="#242B3D"/>
<path d="M117.655 14.7193C119.555 14.7193 121.095 13.2047 121.095 11.3362C121.095 9.46779 119.555 7.95312 117.655 7.95312C115.755 7.95312 114.215 9.46779 114.215 11.3362C114.215 13.2047 115.755 14.7193 117.655 14.7193Z" fill="#4D43FE"/>
<path d="M47.334 46.5991C46.9779 46.5991 46.6594 46.5219 46.3787 46.3668C46.1049 46.2121 45.903 45.9864 45.773 45.6903L45.6948 46.1955C45.6689 46.3638 45.522 46.4882 45.3488 46.4882H44.5401C44.3251 46.4882 44.1605 46.2988 44.1944 46.0898L45.2333 39.6592C45.2603 39.4922 45.4069 39.3691 45.579 39.3691H46.4216C46.6366 39.3691 46.8005 39.5578 46.7673 39.7666L46.3787 42.2064C46.5706 41.9575 46.8033 41.7657 47.0771 41.6311C47.3509 41.4965 47.6555 41.4291 47.9908 41.4291C48.5592 41.4291 49.0146 41.6209 49.3568 42.0044C49.6991 42.3883 49.8702 42.9102 49.8702 43.5697C49.8702 44.1419 49.7675 44.657 49.5622 45.1147C49.3568 45.5726 49.0623 45.9361 48.6788 46.2053C48.3023 46.4678 47.8539 46.5991 47.334 46.5991ZM47.0155 45.458C47.4263 45.458 47.7447 45.2864 47.9704 44.943C48.1962 44.5999 48.3093 44.1688 48.3093 43.6507C48.3093 43.3005 48.2239 43.0346 48.0527 42.8527C47.8882 42.6643 47.6589 42.5702 47.3647 42.5702C46.954 42.5702 46.6356 42.7419 46.4098 43.0849C46.1837 43.4283 46.0707 43.856 46.0707 44.3674C46.0707 44.7175 46.1529 44.9868 46.3172 45.1752C46.4883 45.3639 46.721 45.458 47.0155 45.458Z" fill="#242B3D"/>
<path d="M50.9976 48.305C50.7234 48.305 50.5554 48.0089 50.6996 47.7797L51.6838 46.2147L50.4824 41.9655C50.4205 41.7462 50.5882 41.5293 50.8199 41.5293H51.6424C51.8049 41.5293 51.9463 41.6391 51.9833 41.7948L52.6695 44.6797L54.3864 41.7034C54.4487 41.5956 54.5648 41.5293 54.691 41.5293H55.4703C55.7424 41.5293 55.9104 41.8213 55.7704 42.0505L52.0527 48.1377C51.9895 48.2414 51.8754 48.305 51.7526 48.305H50.9976Z" fill="#242B3D"/>
<mask id="mask0_854_1324" style="mask-type:luminance" maskUnits="userSpaceOnUse" x="57" y="39" width="36" height="10">
<path d="M92.243 39.2578H57.2371V48.6672H92.243V39.2578Z" fill="white"/>
</mask>
<g mask="url(#mask0_854_1324)">
<path fill-rule="evenodd" clip-rule="evenodd" d="M58.7715 39.8364C58.7878 39.6742 58.9368 39.5287 59.1065 39.5345C60.3743 39.5345 61.6359 39.5396 62.8975 39.5345C63.0344 39.5236 63.1834 39.5828 63.2494 39.7018C63.3424 39.8629 63.2605 40.0417 63.2494 40.209C63.2104 40.4351 63.2214 40.7377 62.9525 40.8234C62.0307 40.8509 61.109 40.8234 60.1873 40.8343C60.0995 41.4065 60.0172 41.9726 59.9294 42.54C59.9294 42.5614 59.9353 42.6097 59.9353 42.6315C60.6101 42.6253 61.285 42.6315 61.9599 42.6253C62.1459 42.6148 62.3436 42.7719 62.3267 42.9657C62.3108 43.1652 62.2669 43.3597 62.2399 43.5593C62.2178 43.6943 62.1078 43.818 61.9647 43.8456C61.2131 43.8612 60.4504 43.8289 59.6995 43.8612C59.5785 44.6762 59.4357 45.4911 59.3095 46.3064C59.2925 46.4676 59.1615 46.608 58.9966 46.6131C58.6837 46.6189 58.3708 46.6189 58.0579 46.6131C57.855 46.6189 57.6911 46.3979 57.7461 46.2088C58.0808 44.0825 58.4258 41.9617 58.7715 39.8364Z" fill="#242B3D"/>
<path d="M58.7715 39.8364C58.7878 39.6742 58.9368 39.5287 59.1065 39.5345C60.3743 39.5345 61.6359 39.5396 62.8975 39.5345C63.0344 39.5236 63.1834 39.5828 63.2494 39.7018C63.3424 39.8629 63.2605 40.0417 63.2494 40.209C63.2104 40.4351 63.2214 40.7377 62.9525 40.8234C62.0307 40.8509 61.109 40.8234 60.1873 40.8343C60.0995 41.4065 60.0172 41.9726 59.9294 42.54C59.9294 42.5614 59.9353 42.6097 59.9353 42.6315C60.6101 42.6253 61.285 42.6315 61.9599 42.6253C62.1459 42.6148 62.3436 42.7719 62.3267 42.9657C62.3108 43.1652 62.2669 43.3597 62.2399 43.5593C62.2178 43.6943 62.1078 43.818 61.9647 43.8456C61.2131 43.8612 60.4504 43.8289 59.6995 43.8612C59.5785 44.6762 59.4357 45.4911 59.3095 46.3064C59.2925 46.4676 59.1615 46.608 58.9966 46.6131C58.6837 46.6189 58.3708 46.6189 58.0579 46.6131C57.855 46.6189 57.6911 46.3979 57.7461 46.2088C58.0808 44.0825 58.4258 41.9617 58.7715 39.8364Z" stroke="#242B3D" stroke-width="0.0390472" stroke-miterlimit="22.926"/>
<path fill-rule="evenodd" clip-rule="evenodd" d="M64.3462 39.5448C64.6311 39.523 64.9222 39.5397 65.2081 39.5339C65.3831 39.523 65.559 39.6577 65.5749 39.8358C65.5749 39.9762 65.5369 40.117 65.521 40.2564C65.2901 41.7027 65.0539 43.1487 64.823 44.595C64.7912 44.8269 64.73 45.0758 64.8022 45.3128C64.8842 45.5507 65.252 45.4474 65.3388 45.6963C65.3938 45.8958 65.334 46.106 65.317 46.3106C65.3011 46.5809 64.9879 46.6401 64.7742 46.6999C64.3082 46.7856 63.7422 46.7217 63.4076 46.3429C63.1666 46.0689 63.1496 45.6793 63.1994 45.3345C63.4905 43.4999 63.7813 41.6653 64.0772 39.8249C64.0942 39.6903 64.2031 39.5662 64.3462 39.5448Z" fill="#242B3D"/>
<path d="M64.3462 39.5448C64.6311 39.523 64.9222 39.5397 65.2081 39.5339C65.3831 39.523 65.559 39.6577 65.5749 39.8358C65.5749 39.9762 65.5369 40.117 65.521 40.2564C65.2901 41.7027 65.0539 43.1487 64.823 44.595C64.7912 44.8269 64.73 45.0758 64.8022 45.3128C64.8842 45.5507 65.252 45.4474 65.3388 45.6963C65.3938 45.8958 65.334 46.106 65.317 46.3106C65.3011 46.5809 64.9879 46.6401 64.7742 46.6999C64.3082 46.7856 63.7422 46.7217 63.4076 46.3429C63.1666 46.0689 63.1496 45.6793 63.1994 45.3345C63.4905 43.4999 63.7813 41.6653 64.0772 39.8249C64.0942 39.6903 64.2031 39.5662 64.3462 39.5448Z" stroke="#242B3D" stroke-width="0.0390472" stroke-miterlimit="22.926"/>
<path fill-rule="evenodd" clip-rule="evenodd" d="M75.2377 39.8369C75.2536 39.6747 75.4026 39.5353 75.5668 39.5353H76.4014C76.6096 39.5292 76.7793 39.7505 76.7306 39.945C76.5383 41.1424 76.3406 42.3409 76.1487 43.5383C76.4395 43.4952 76.7682 43.4411 76.9712 43.2092C77.3121 42.8315 77.5921 42.395 77.8002 41.936C77.8711 41.7581 77.9102 41.4984 78.146 41.4661C78.4589 41.4562 78.7769 41.461 79.0898 41.4661C79.3038 41.461 79.4625 41.698 79.3916 41.8928C79.3087 42.1787 79.1718 42.4432 79.0297 42.6969C78.7109 43.2041 78.36 43.7056 77.8991 44.1048C78.1021 44.7045 78.36 45.2866 78.5847 45.8754C78.6507 46.0689 78.8098 46.296 78.6618 46.485C78.4921 46.7111 78.1729 46.5979 77.9372 46.6244C77.6903 46.5979 77.3342 46.7217 77.1963 46.4466C76.9383 45.8588 76.7243 45.2539 76.4616 44.6661C76.3074 44.6719 76.1487 44.677 75.9945 44.6613C75.9834 44.6827 75.9617 44.7253 75.9516 44.7467C75.8687 45.2866 75.7805 45.8261 75.6937 46.366C75.6605 46.4956 75.5558 46.6088 75.4137 46.6197C75.1229 46.6306 74.8259 46.6244 74.53 46.6244C74.4041 46.6244 74.289 46.5439 74.234 46.4357C74.1791 46.3276 74.2123 46.2039 74.2282 46.0859C74.568 44.0024 74.903 41.9193 75.2377 39.8369Z" fill="#242B3D"/>
<path d="M75.2377 39.8369C75.2536 39.6747 75.4026 39.5353 75.5668 39.5353H76.4014C76.6096 39.5292 76.7793 39.7505 76.7306 39.945C76.5383 41.1424 76.3406 42.3409 76.1487 43.5383C76.4395 43.4952 76.7682 43.4411 76.9712 43.2092C77.3121 42.8315 77.5921 42.395 77.8002 41.936C77.8711 41.7581 77.9102 41.4984 78.146 41.4661C78.4589 41.4562 78.7769 41.461 79.0898 41.4661C79.3038 41.461 79.4625 41.698 79.3916 41.8928C79.3087 42.1787 79.1718 42.4432 79.0297 42.6969C78.7109 43.2041 78.36 43.7056 77.8991 44.1048C78.1021 44.7045 78.36 45.2866 78.5847 45.8754C78.6507 46.0689 78.8098 46.296 78.6618 46.485C78.4921 46.7111 78.1729 46.5979 77.9372 46.6244C77.6903 46.5979 77.3342 46.7217 77.1963 46.4466C76.9383 45.8588 76.7243 45.2539 76.4616 44.6661C76.3074 44.6719 76.1487 44.677 75.9945 44.6613C75.9834 44.6827 75.9617 44.7253 75.9516 44.7467C75.8687 45.2866 75.7805 45.8261 75.6937 46.366C75.6605 46.4956 75.5558 46.6088 75.4137 46.6197C75.1229 46.6306 74.8259 46.6244 74.53 46.6244C74.4041 46.6244 74.289 46.5439 74.234 46.4357C74.1791 46.3276 74.2123 46.2039 74.2282 46.0859C74.568 44.0024 74.903 41.9193 75.2377 39.8369Z" stroke="#242B3D" stroke-width="0.0390472" stroke-miterlimit="22.926"/>
<path fill-rule="evenodd" clip-rule="evenodd" d="M90.4856 40.4245C90.5236 40.2732 90.6726 40.1709 90.8254 40.176C91.0453 40.1817 91.2704 40.1709 91.4954 40.1817C91.6763 40.1865 91.8191 40.3657 91.7973 40.5377C91.7641 40.8454 91.6873 41.1531 91.6652 41.4608C91.8792 41.4608 92.0991 41.455 92.3131 41.4608C92.505 41.4608 92.664 41.6546 92.6312 41.8382C92.6028 42.0055 92.5651 42.1676 92.5382 42.3349C92.5098 42.4753 92.3892 42.5885 92.2523 42.61C91.9892 42.6259 91.7312 42.5991 91.4733 42.6259C91.3634 43.3494 91.2424 44.0719 91.1272 44.7954C91.1117 44.9627 91.1006 45.1514 91.1995 45.2969C91.3475 45.4747 91.6054 45.4101 91.8132 45.4315C91.9781 45.4808 92.0822 45.6587 92.0552 45.8198C92.0272 46.0038 92.022 46.1877 91.9781 46.3655C91.9121 46.5651 91.6763 46.6025 91.4954 46.6518C90.9955 46.7806 90.4195 46.7806 89.9756 46.4944C89.5639 46.219 89.4978 45.6852 89.5417 45.232C89.6569 44.3582 89.8377 43.4888 89.9369 42.61C89.7837 42.6151 89.5967 42.6365 89.4819 42.5018C89.3499 42.3672 89.4159 42.1676 89.438 41.9997C89.4709 41.8215 89.4646 41.5896 89.6627 41.4931C89.8218 41.4332 90.0026 41.4764 90.1727 41.455C90.2778 41.1099 90.3756 40.7648 90.4856 40.4245Z" fill="#242B3D"/>
<path d="M90.4856 40.4245C90.5236 40.2732 90.6726 40.1709 90.8254 40.176C91.0453 40.1817 91.2704 40.1709 91.4954 40.1817C91.6763 40.1865 91.8191 40.3657 91.7973 40.5377C91.7641 40.8454 91.6873 41.1531 91.6652 41.4608C91.8792 41.4608 92.0991 41.455 92.3131 41.4608C92.505 41.4608 92.664 41.6546 92.6312 41.8382C92.6028 42.0055 92.5651 42.1676 92.5382 42.3349C92.5098 42.4753 92.3892 42.5885 92.2523 42.61C91.9892 42.6259 91.7312 42.5991 91.4733 42.6259C91.3634 43.3494 91.2424 44.0719 91.1272 44.7954C91.1117 44.9627 91.1006 45.1514 91.1995 45.2969C91.3475 45.4747 91.6054 45.4101 91.8132 45.4315C91.9781 45.4808 92.0822 45.6587 92.0552 45.8198C92.0272 46.0038 92.022 46.1877 91.9781 46.3655C91.9121 46.5651 91.6763 46.6025 91.4954 46.6518C90.9955 46.7806 90.4195 46.7806 89.9756 46.4944C89.5639 46.219 89.4978 45.6852 89.5417 45.232C89.6569 44.3582 89.8377 43.4888 89.9369 42.61C89.7837 42.6151 89.5967 42.6365 89.4819 42.5018C89.3499 42.3672 89.4159 42.1676 89.438 41.9997C89.4709 41.8215 89.4646 41.5896 89.6627 41.4931C89.8218 41.4332 90.0026 41.4764 90.1727 41.455C90.2778 41.1099 90.3756 40.7648 90.4856 40.4245Z" stroke="#242B3D" stroke-width="0.0390472" stroke-miterlimit="22.926"/>
<path fill-rule="evenodd" clip-rule="evenodd" d="M87.3856 42.1726C87.7317 41.8322 88.1487 41.5521 88.6254 41.4117C88.8342 41.3202 89.1032 41.4933 89.0973 41.7194C89.0593 42.0162 88.9884 42.3072 88.9383 42.5993C88.9162 42.7448 88.7903 42.8685 88.6424 42.8845C88.1044 42.9766 87.6377 43.2952 87.2646 43.6729C87.1716 43.7858 87.0347 43.8939 87.0178 44.0503C86.9026 44.8055 86.782 45.5616 86.662 46.3164C86.6447 46.4786 86.5019 46.635 86.3318 46.6241H85.4983C85.3064 46.635 85.1363 46.4463 85.1584 46.2576C85.3994 44.7623 85.6411 43.2738 85.8772 41.7782C85.8883 41.6279 85.9972 41.4824 86.1569 41.4657C86.3599 41.4548 86.5628 41.4606 86.7709 41.4606C86.9358 41.4606 87.0897 41.6061 87.0897 41.7734C87.0897 42.0053 87.0676 42.2423 87.0617 42.4803C87.1938 42.3997 87.2757 42.2698 87.3856 42.1726Z" fill="#242B3D"/>
<path d="M87.3856 42.1726C87.7317 41.8322 88.1487 41.5521 88.6254 41.4117C88.8342 41.3202 89.1032 41.4933 89.0973 41.7194C89.0593 42.0162 88.9884 42.3072 88.9383 42.5993C88.9162 42.7448 88.7903 42.8685 88.6424 42.8845C88.1044 42.9766 87.6377 43.2952 87.2646 43.6729C87.1716 43.7858 87.0347 43.8939 87.0178 44.0503C86.9026 44.8055 86.782 45.5616 86.662 46.3164C86.6447 46.4786 86.5019 46.635 86.3318 46.6241H85.4983C85.3064 46.635 85.1363 46.4463 85.1584 46.2576C85.3994 44.7623 85.6411 43.2738 85.8772 41.7782C85.8883 41.6279 85.9972 41.4824 86.1569 41.4657C86.3599 41.4548 86.5628 41.4606 86.7709 41.4606C86.9358 41.4606 87.0897 41.6061 87.0897 41.7734C87.0897 42.0053 87.0676 42.2423 87.0617 42.4803C87.1938 42.3997 87.2757 42.2698 87.3856 42.1726Z" stroke="#242B3D" stroke-width="0.0390472" stroke-miterlimit="22.926"/>
<path fill-rule="evenodd" clip-rule="evenodd" d="M66.8758 41.4874C67.1717 41.4283 67.4798 41.4765 67.7754 41.4609C67.9455 41.4391 68.1263 41.5462 68.1543 41.7145C68.1764 41.8648 68.1325 42.0103 68.1156 42.1569C67.8905 43.543 67.6654 44.9302 67.4466 46.3163C67.4296 46.4727 67.2986 46.6291 67.1278 46.6244C66.8319 46.6244 66.5359 46.6291 66.2341 46.6193C66.0471 46.5975 65.9102 46.3874 65.9589 46.2082C66.195 44.768 66.4208 43.3326 66.6559 41.8924C66.667 41.7349 66.7109 41.5524 66.8758 41.4874Z" fill="#242B3D"/>
<path d="M66.8758 41.4874C67.1717 41.4283 67.4798 41.4765 67.7754 41.4609C67.9455 41.4391 68.1263 41.5462 68.1543 41.7145C68.1764 41.8648 68.1325 42.0103 68.1156 42.1569C67.8905 43.543 67.6654 44.9302 67.4466 46.3163C67.4296 46.4727 67.2986 46.6291 67.1278 46.6244C66.8319 46.6244 66.5359 46.6291 66.2341 46.6193C66.0471 46.5975 65.9102 46.3874 65.9589 46.2082C66.195 44.768 66.4208 43.3326 66.6559 41.8924C66.667 41.7349 66.7109 41.5524 66.8758 41.4874Z" stroke="#242B3D" stroke-width="0.0390472" stroke-miterlimit="22.926"/>
<path fill-rule="evenodd" clip-rule="evenodd" d="M83.0904 44.1003C82.8705 44.5056 82.5635 44.8721 82.2174 45.1849C82.0207 45.3471 81.7676 45.5144 81.4987 45.4603C81.2359 45.4059 81.1097 45.1366 81.0489 44.9048C80.912 44.2999 81.0378 43.6414 81.3839 43.1184C81.5377 42.8754 81.7846 42.6928 82.0695 42.617C82.4705 42.5197 82.8923 42.5677 83.2823 42.6758L83.3041 42.6975C83.2553 43.1664 83.1613 43.6315 83.0904 44.1003ZM84.632 41.5589C83.814 41.4076 82.9805 41.3005 82.1514 41.3811C81.4109 41.4725 80.6651 41.802 80.2101 42.4007C79.5781 43.1881 79.3645 44.2459 79.5073 45.2281C79.5844 45.698 79.7921 46.1729 80.1821 46.464C80.5441 46.7394 81.033 46.7764 81.4717 46.7067C82.0864 46.5877 82.6074 46.1995 83.0354 45.768C83.0572 45.9516 83.0133 46.1345 83.0244 46.3127C83.0354 46.4796 83.1893 46.637 83.3594 46.6261H83.9191C84.083 46.6261 84.2209 46.4748 84.232 46.3184C84.4678 44.8555 84.7039 43.3986 84.9338 41.9424C84.9667 41.7585 84.8187 41.5807 84.632 41.5589Z" fill="#242B3D"/>
<path d="M83.0904 44.1003C82.8705 44.5056 82.5635 44.8721 82.2174 45.1849C82.0207 45.3471 81.7676 45.5144 81.4987 45.4603C81.2359 45.4059 81.1097 45.1366 81.0489 44.9048C80.912 44.2999 81.0378 43.6414 81.3839 43.1184C81.5377 42.8754 81.7846 42.6928 82.0695 42.617C82.4705 42.5197 82.8923 42.5677 83.2823 42.6758L83.3041 42.6975C83.2553 43.1664 83.1613 43.6315 83.0904 44.1003ZM84.632 41.5589C83.814 41.4076 82.9805 41.3005 82.1514 41.3811C81.4109 41.4725 80.6651 41.802 80.2101 42.4007C79.5781 43.1881 79.3645 44.2459 79.5073 45.2281C79.5844 45.698 79.7921 46.1729 80.1821 46.464C80.5441 46.7394 81.033 46.7764 81.4717 46.7067C82.0864 46.5877 82.6074 46.1995 83.0354 45.768C83.0572 45.9516 83.0133 46.1345 83.0244 46.3127C83.0354 46.4796 83.1893 46.637 83.3594 46.6261H83.9191C84.083 46.6261 84.2209 46.4748 84.232 46.3184C84.4678 44.8555 84.7039 43.3986 84.9338 41.9424C84.9667 41.7585 84.8187 41.5807 84.632 41.5589Z" stroke="#242B3D" stroke-width="0.0390472" stroke-miterlimit="22.926"/>
<path fill-rule="evenodd" clip-rule="evenodd" d="M72.3247 43.8349C72.2918 44.3313 72.1107 44.8328 71.7597 45.1945C71.3041 45.6212 70.6133 45.5614 70.0532 45.4159C70.0425 45.4002 70.0252 45.3676 70.0204 45.3509C70.1085 44.8821 70.1524 44.4071 70.2614 43.943C70.5694 43.4467 70.9421 42.9441 71.4738 42.6701C71.6719 42.5776 71.9409 42.5991 72.0837 42.7772C72.3247 43.074 72.3468 43.4732 72.3247 43.8349ZM73.8614 43.2903C73.8552 42.7507 73.7072 42.1843 73.3235 41.7793C73.0597 41.4931 72.6645 41.3475 72.2808 41.3526C71.6439 41.3309 71.0462 41.6386 70.5801 42.0486C70.4754 42.1302 70.4041 42.2482 70.2894 42.3131C70.2894 42.135 70.3053 41.9572 70.3004 41.7732C70.3053 41.6063 70.1462 41.4608 69.9813 41.4608H69.4226C69.2466 41.4608 69.1035 41.6121 69.0928 41.7793C68.7477 43.9373 68.3958 46.0962 68.0508 48.2541C68.001 48.4537 68.1769 48.6591 68.3847 48.6533C68.6928 48.6485 69.0057 48.675 69.3064 48.6315C69.5485 48.5669 69.5426 48.2915 69.5816 48.092C69.6695 47.617 69.7296 47.1424 69.7846 46.6623C70.865 46.867 72.1217 46.7272 72.9287 45.9232C73.5862 45.2163 73.8943 44.2399 73.8614 43.2903Z" fill="#242B3D"/>
<path d="M72.3247 43.8349C72.2918 44.3313 72.1107 44.8328 71.7597 45.1945C71.3041 45.6212 70.6133 45.5614 70.0532 45.4159C70.0425 45.4002 70.0252 45.3676 70.0204 45.3509C70.1085 44.8821 70.1524 44.4071 70.2614 43.943C70.5694 43.4467 70.9421 42.9441 71.4738 42.6701C71.6719 42.5776 71.9409 42.5991 72.0837 42.7772C72.3247 43.074 72.3468 43.4732 72.3247 43.8349ZM73.8614 43.2903C73.8552 42.7507 73.7072 42.1843 73.3235 41.7793C73.0597 41.4931 72.6645 41.3475 72.2808 41.3526C71.6439 41.3309 71.0462 41.6386 70.5801 42.0486C70.4754 42.1302 70.4041 42.2482 70.2894 42.3131C70.2894 42.135 70.3053 41.9572 70.3004 41.7732C70.3053 41.6063 70.1462 41.4608 69.9813 41.4608H69.4226C69.2466 41.4608 69.1035 41.6121 69.0928 41.7793C68.7477 43.9373 68.3958 46.0962 68.0508 48.2541C68.001 48.4537 68.1769 48.6591 68.3847 48.6533C68.6928 48.6485 69.0057 48.675 69.3064 48.6315C69.5485 48.5669 69.5426 48.2915 69.5816 48.092C69.6695 47.617 69.7296 47.1424 69.7846 46.6623C70.865 46.867 72.1217 46.7272 72.9287 45.9232C73.5862 45.2163 73.8943 44.2399 73.8614 43.2903Z" stroke="#242B3D" stroke-width="0.0391703" stroke-miterlimit="22.926"/>
<path fill-rule="evenodd" clip-rule="evenodd" d="M67.4739 39.4966C67.7647 39.4535 68.0997 39.4269 68.3466 39.6051C68.4997 39.718 68.5547 39.9233 68.5436 40.1062C68.5547 40.4092 68.4126 40.7325 68.1377 40.8889C67.8968 41.0188 67.606 41.0297 67.337 41.0021C67.1562 40.9804 66.975 40.8841 66.881 40.7216C66.6732 40.2518 66.9311 39.5881 67.4739 39.4966Z" fill="#242B3D"/>
<path d="M67.4739 39.4966C67.7647 39.4535 68.0997 39.4269 68.3466 39.6051C68.4997 39.718 68.5547 39.9233 68.5436 40.1062C68.5547 40.4092 68.4126 40.7325 68.1377 40.8889C67.8968 41.0188 67.606 41.0297 67.337 41.0021C67.1562 40.9804 66.975 40.8841 66.881 40.7216C66.6732 40.2518 66.9311 39.5881 67.4739 39.4966Z" stroke="#242B3D" stroke-width="0.0390472" stroke-miterlimit="22.926"/>
</g>
</g>
<defs>
<clipPath id="clip0_854_1324">
<rect width="138" height="48" fill="white"/>
</clipPath>
</defs>
</svg>
